<mxfile host="app.diagrams.net" modified="2023-05-01T21:40:31.383Z" agent="Mozilla/5.0 (Windows NT 10.0; Win64; x64) AppleWebKit/537.36 (KHTML, like Gecko) Chrome/112.0.0.0 Safari/537.36" version="21.2.1" etag="d9UlmuIz0FPn1Jd0UUe5" type="github">
  <diagram name="Страница-1" id="Wk7hByi5hpv1IXXVbZc6">
    <mxGraphModel>
      <root>
        <mxCell id="0" />
        <mxCell id="1" parent="0" />
      </root>
    </mxGraphModel>
  </diagram>
</mxfile>
